<?xml version="1.0" encoding="UTF-8"?>
<svg version="1.1" xmlns="http://www.w3.org/2000/svg" width="16" height="16">
<path d="M0 0 C5.28 0 10.56 0 16 0 C16 5.28 16 10.56 16 16 C10.72 16 5.44 16 0 16 C0 10.72 0 5.44 0 0 Z " fill="#EE5B15" transform="translate(0,0)"/>
<path d="M0 0 C5.28 0 10.56 0 16 0 C16 2.64 16 5.28 16 8 C15.67 7.34 15.34 6.68 15 6 C14.34 6 13.68 6 13 6 C12.67 5.01 12.34 4.02 12 3 C11.01 4.485 11.01 4.485 10 6 C10 5.34 10 4.68 10 4 C8.68 4.33 7.36 4.66 6 5 C6.33 5.33 6.66 5.66 7 6 C7.66 5.67 8.32 5.34 9 5 C9 6.65 9 8.3 9 10 C8.05125 9.79375 7.1025 9.5875 6.125 9.375 C5.09375 9.25125 4.0625 9.1275 3 9 C2.34 9.66 1.68 10.32 1 11 C0 8 0 8 0 0 Z " fill="#DA4A48" transform="translate(0,0)"/>
<path d="M0 0 C0.33 0 0.66 0 1 0 C1 3.96 1 7.92 1 12 C0.67 11.01 0.34 10.02 0 9 C-0.9075 9.2475 -1.815 9.495 -2.75 9.75 C-6 10 -6 10 -8.375 8.0625 C-9.179375 7.0415625 -9.179375 7.0415625 -10 6 C-7.69 6.66 -5.38 7.32 -3 8 C-3 6.35 -3 4.7 -3 3 C-3.99 3.99 -4.98 4.98 -6 6 C-6 4.68 -6 3.36 -6 2 C-4.7934375 1.7834375 -4.7934375 1.7834375 -3.5625 1.5625 C-1.07896294 1.25864751 -1.07896294 1.25864751 0 0 Z " fill="#F7DAD3" transform="translate(12,2)"/>
<path d="M0 0 C4.62 0 9.24 0 14 0 C14 1.65 14 3.3 14 5 C13.34 5 12.68 5 12 5 C11.67 4.01 11.34 3.02 11 2 C10.01 3.485 10.01 3.485 9 5 C9 4.34 9 3.68 9 3 C4.545 3.495 4.545 3.495 0 4 C0 2.68 0 1.36 0 0 Z " fill="#C83944" transform="translate(1,1)"/>
<path d="M0 0 C0.33 0 0.66 0 1 0 C1 2.64 1 5.28 1 8 C0.01 7.67 -0.98 7.34 -2 7 C-1.125 1.125 -1.125 1.125 0 0 Z " fill="#EBADA8" transform="translate(12,2)"/>
</svg>
