<?xml version="1.0" standalone="no"?>
<!DOCTYPE svg PUBLIC "-//W3C//DTD SVG 20010904//EN"
 "http://www.w3.org/TR/2001/REC-SVG-20010904/DTD/svg10.dtd">
<svg version="1.0" xmlns="http://www.w3.org/2000/svg"
 width="3840.000000pt" height="3840.000000pt" viewBox="0 0 3840.000000 3840.000000"
 preserveAspectRatio="xMidYMid meet">
<metadata>
Created by potrace 1.16, written by Peter Selinger 2001-2019
</metadata>
<g transform="translate(0.000000,3840.000000) scale(0.100000,-0.100000)"
fill="#000000" stroke="none">
<path d="M6060 37129 c-364 -3 -643 -10 -700 -17 -52 -6 -167 -16 -255 -22
-88 -6 -196 -19 -240 -30 -44 -11 -134 -26 -200 -35 -154 -19 -165 -22 -255
-50 -41 -14 -104 -29 -140 -35 -115 -18 -195 -37 -243 -58 -25 -11 -71 -25
-101 -32 -30 -6 -72 -23 -93 -37 -21 -15 -69 -36 -108 -49 -106 -33 -323 -119
-389 -153 -32 -17 -65 -31 -73 -31 -21 0 -183 -86 -422 -225 -57 -33 -297
-190 -375 -245 -27 -19 -77 -64 -110 -99 -34 -35 -81 -77 -106 -94 -25 -16
-90 -73 -145 -126 -55 -53 -125 -118 -155 -146 -163 -148 -442 -464 -534 -605
-27 -41 -78 -111 -113 -156 -35 -44 -78 -103 -96 -132 -17 -28 -54 -86 -81
-129 -27 -43 -80 -137 -117 -209 -37 -73 -83 -155 -102 -182 -19 -28 -38 -68
-42 -89 -3 -21 -20 -65 -37 -98 -17 -33 -52 -125 -78 -205 -26 -80 -62 -176
-79 -215 -18 -38 -41 -112 -51 -162 -11 -51 -28 -127 -39 -170 -11 -47 -26
-170 -36 -308 -16 -215 -17 -1117 -17 -13635 1 -9301 4 -13477 11 -13640 10
-221 33 -470 46 -489 2 -5 16 -66 30 -136 14 -70 43 -182 65 -249 21 -66 44
-148 50 -181 7 -33 23 -80 35 -105 43 -82 103 -215 110 -240 10 -36 184 -371
205 -395 10 -11 28 -40 40 -63 12 -24 36 -65 54 -90 19 -26 41 -63 51 -82 10
-19 30 -49 45 -66 15 -17 53 -69 84 -115 92 -134 121 -175 159 -221 19 -24 42
-58 52 -77 34 -68 571 -592 764 -746 35 -27 81 -65 104 -83 22 -18 59 -43 81
-54 23 -11 52 -30 66 -42 14 -13 47 -36 73 -52 66 -40 183 -108 232 -135 22
-12 65 -38 95 -59 30 -20 80 -52 110 -72 82 -52 391 -201 505 -243 55 -21 111
-43 126 -50 14 -8 62 -21 108 -29 45 -9 102 -27 126 -41 34 -20 69 -29 167
-40 68 -8 151 -24 184 -36 32 -12 100 -25 149 -29 412 -38 601 -49 905 -54
190 -4 410 -11 490 -17 89 -6 807 -10 1865 -9 23789 6 25340 7 25560 18 127 7
295 18 375 26 80 8 181 17 225 21 183 14 281 28 319 47 24 12 83 25 159 34 85
10 136 21 176 40 31 14 92 32 136 40 45 9 115 32 160 53 44 21 91 42 105 46
14 4 50 20 80 35 30 16 80 35 111 44 31 8 67 24 80 34 13 11 49 32 79 47 67
34 143 78 280 165 58 37 126 77 150 90 25 12 74 48 110 80 36 31 85 67 110 80
25 12 81 55 125 94 44 39 96 83 115 98 63 47 550 509 660 626 51 53 95 109
159 197 40 55 94 127 122 160 27 33 75 100 107 149 31 48 67 102 79 120 13 17
31 44 40 60 10 16 33 49 50 75 18 25 44 70 58 100 15 30 35 65 45 78 10 13 26
48 36 76 9 29 32 81 49 117 18 36 36 81 40 100 4 19 22 64 41 100 18 36 40
101 49 145 9 44 27 104 41 134 13 30 35 102 49 160 13 59 31 124 38 146 8 22
22 92 31 155 9 63 26 156 36 205 11 50 22 115 25 145 4 30 15 118 25 195 25
190 33 782 35 2775 2 1835 12 7387 23 12865 8 4426 8 5463 0 6705 -3 487 -9
1486 -12 2220 -4 734 -11 1594 -17 1910 -9 516 -12 586 -31 680 -32 164 -37
192 -38 240 0 25 -14 83 -31 130 -16 47 -46 146 -65 220 -19 74 -50 168 -68
210 -19 41 -42 109 -51 150 -10 41 -31 101 -47 132 -15 32 -35 84 -43 115 -8
32 -24 69 -35 83 -11 14 -27 41 -36 60 -8 19 -32 71 -54 115 -21 44 -42 91
-46 105 -4 14 -24 50 -44 80 -77 112 -120 183 -120 194 0 16 -86 139 -162 232
-63 76 -96 117 -153 191 -107 138 -238 270 -873 881 -24 23 -48 42 -52 42 -5
0 -48 34 -97 76 -48 42 -108 87 -133 102 -25 14 -76 47 -115 73 -38 25 -104
63 -145 84 -41 21 -86 45 -100 55 -52 36 -182 102 -247 125 -99 34 -263 103
-299 125 -17 11 -60 26 -96 33 -36 8 -91 29 -123 47 -32 18 -87 39 -124 47
-36 7 -83 25 -103 38 -24 16 -63 28 -110 35 -40 6 -103 17 -139 25 -37 8 -85
15 -107 15 -22 0 -83 13 -135 29 -53 17 -124 33 -159 36 -35 4 -103 15 -151
26 -48 10 -204 31 -345 46 l-257 27 -1215 0 c-668 0 -2765 -6 -4660 -13 -3848
-15 -17120 -9 -18380 9 -931 13 -1984 16 -2730 9z m2670 -79 c1287 -18 14345
-24 18570 -9 2093 8 4228 13 4745 13 l940 -2 257 -26 c141 -15 297 -35 345
-45 48 -11 116 -22 151 -26 35 -3 106 -19 159 -36 52 -16 113 -29 135 -29 22
0 70 -7 107 -15 36 -8 99 -19 139 -25 47 -7 86 -19 110 -35 20 -13 67 -31 103
-38 37 -8 92 -29 124 -47 32 -18 87 -39 123 -47 36 -7 79 -22 96 -33 36 -22
200 -91 299 -125 65 -23 195 -89 247 -125 14 -10 59 -34 100 -55 41 -21 107
-59 145 -84 39 -26 90 -59 115 -73 25 -15 85 -60 133 -102 49 -42 92 -76 96
-76 8 0 18 -9 346 -325 368 -356 477 -467 570 -588 57 -74 90 -115 153 -191
76 -93 162 -216 162 -232 0 -11 43 -82 120 -194 20 -30 40 -66 44 -80 4 -14
25 -61 46 -105 22 -44 46 -96 54 -115 9 -19 25 -46 36 -60 11 -14 27 -51 35
-83 8 -31 28 -83 43 -115 16 -31 37 -91 47 -132 9 -41 32 -109 51 -150 18 -42
49 -136 68 -210 19 -74 49 -173 65 -220 17 -47 31 -105 31 -130 1 -48 6 -76
38 -240 19 -94 22 -165 31 -675 6 -313 13 -1195 17 -1960 4 -764 9 -1766 12
-2225 8 -1307 8 -2163 -7 -10210 -7 -4155 -14 -8264 -16 -9130 -3 -2061 -10
-2649 -35 -2835 -10 -77 -21 -165 -25 -195 -3 -30 -14 -95 -25 -145 -10 -49
-27 -142 -36 -205 -9 -63 -23 -133 -31 -155 -7 -22 -25 -87 -38 -146 -14 -58
-36 -130 -49 -160 -14 -30 -32 -90 -41 -134 -9 -44 -31 -109 -49 -145 -19 -36
-37 -81 -41 -100 -4 -19 -22 -64 -40 -100 -17 -36 -40 -88 -49 -117 -10 -28
-26 -63 -36 -76 -10 -13 -30 -48 -45 -78 -14 -30 -40 -75 -58 -100 -17 -26
-40 -59 -50 -75 -9 -16 -27 -43 -40 -60 -12 -18 -48 -72 -79 -120 -32 -49 -80
-116 -107 -149 -28 -33 -87 -111 -131 -172 -62 -86 -140 -171 -333 -361 -258
-255 -405 -394 -467 -440 -19 -15 -71 -59 -115 -98 -44 -39 -100 -82 -125 -94
-25 -13 -74 -49 -110 -80 -36 -32 -85 -68 -110 -80 -24 -13 -92 -53 -150 -90
-137 -87 -213 -131 -280 -165 -30 -15 -66 -36 -79 -47 -13 -10 -49 -26 -80
-34 -31 -9 -81 -28 -111 -44 -30 -15 -66 -31 -80 -35 -14 -4 -61 -25 -105 -46
-45 -21 -115 -44 -160 -53 -44 -8 -105 -26 -136 -40 -40 -19 -91 -30 -176 -40
-76 -9 -135 -22 -159 -34 -38 -19 -136 -33 -319 -47 -44 -4 -145 -13 -225 -21
-385 -38 -266 -37 -12410 -41 -6493 -1 -12552 -3 -13465 -3 -1004 0 -1717 3
-1805 9 -80 6 -300 13 -490 17 -304 5 -493 16 -905 54 -49 4 -117 17 -149 29
-33 12 -116 28 -184 36 -98 11 -133 20 -167 40 -24 14 -81 32 -126 41 -46 8
-94 21 -108 29 -15 7 -71 29 -126 50 -114 42 -423 191 -505 243 -30 20 -80 52
-110 72 -30 21 -73 47 -95 59 -49 27 -166 95 -232 135 -26 16 -59 39 -73 52
-14 12 -43 31 -66 42 -22 11 -59 36 -81 54 -23 18 -69 56 -104 83 -186 148
-721 671 -754 736 -10 19 -33 53 -52 77 -38 46 -67 87 -159 221 -31 46 -69 98
-84 115 -15 17 -35 47 -45 66 -10 19 -32 56 -51 82 -18 25 -42 66 -54 90 -12
23 -30 52 -40 63 -21 24 -195 359 -205 395 -7 25 -67 158 -110 240 -12 25 -28
72 -35 105 -6 33 -29 115 -50 181 -22 67 -51 179 -65 249 -14 70 -28 131 -30
136 -12 19 -35 267 -45 484 -8 157 -11 4439 -11 13580 -1 12440 0 13366 16
13580 10 138 25 261 36 308 11 43 28 119 39 170 10 50 33 124 51 162 17 39 53
135 79 215 26 80 61 172 78 205 17 33 34 77 37 98 4 21 23 61 42 89 19 27 65
109 102 182 37 72 90 166 117 209 27 43 64 101 81 129 18 29 61 88 96 132 35
45 86 115 113 156 90 138 377 463 529 600 28 25 95 88 150 141 55 53 120 110
145 126 25 17 73 60 106 94 34 35 84 80 110 99 73 52 316 211 375 245 239 139
401 225 422 225 8 0 41 14 73 31 66 34 283 120 389 153 39 13 87 34 108 49 21
14 63 31 93 37 30 7 76 21 101 32 48 21 128 40 243 58 36 6 99 21 140 35 90
28 101 31 255 50 66 9 156 24 200 35 44 11 152 24 240 30 88 6 203 16 255 22
192 24 1884 28 3310 8z"/>
<path d="M25053 32840 c-24 -5 -58 -16 -77 -25 -46 -22 -188 -170 -216 -225
-12 -25 -37 -67 -54 -95 -88 -135 -193 -295 -225 -343 -20 -29 -47 -72 -61
-96 -24 -41 -46 -70 -117 -155 -18 -21 -43 -60 -54 -87 -12 -27 -37 -67 -55
-88 -19 -22 -34 -44 -34 -50 0 -6 -16 -31 -35 -55 -20 -25 -45 -63 -56 -85
-11 -23 -35 -63 -54 -91 -103 -148 -132 -194 -244 -377 -25 -40 -60 -91 -78
-114 -18 -23 -33 -46 -33 -52 0 -6 -20 -40 -44 -75 -24 -35 -47 -75 -51 -88
-11 -34 -41 -75 -100 -139 -29 -31 -62 -78 -74 -105 -12 -27 -30 -59 -40 -70
-11 -11 -32 -47 -49 -81 -32 -64 -100 -134 -130 -134 -10 0 -39 13 -64 29 -25
16 -70 36 -101 45 -31 9 -69 27 -85 41 -19 16 -59 31 -120 44 -50 11 -108 28
-129 39 -21 11 -87 32 -148 47 -60 14 -135 38 -165 52 -30 14 -85 29 -121 34
-37 4 -122 24 -190 42 -174 49 -343 85 -421 91 -36 3 -128 17 -205 31 -76 14
-190 35 -253 46 -63 11 -151 26 -195 34 -44 8 -127 19 -185 25 -58 7 -132 18
-165 25 -33 7 -121 18 -195 24 -361 30 -586 36 -1240 36 -661 0 -816 -5 -1080
-35 -47 -5 -132 -15 -190 -21 -58 -6 -121 -15 -140 -19 -19 -5 -115 -16 -212
-24 -170 -15 -420 -59 -635 -111 -56 -14 -146 -32 -200 -40 -132 -21 -282 -55
-315 -72 -15 -7 -83 -23 -150 -34 -129 -22 -349 -90 -433 -133 -28 -15 -79
-31 -115 -37 -38 -6 -88 -23 -119 -40 -29 -17 -83 -37 -118 -44 -36 -8 -82
-25 -102 -39 -94 -66 -174 -35 -216 83 -23 66 -200 342 -282 440 -15 18 -39
55 -53 82 -14 27 -65 108 -115 180 -127 185 -180 266 -215 331 -16 31 -43 72
-58 90 -16 18 -54 78 -87 133 -32 55 -70 114 -85 130 -15 17 -48 62 -74 100
-44 68 -102 154 -151 225 -14 19 -46 66 -72 104 -94 134 -124 182 -150 231
-14 27 -60 91 -102 142 -42 51 -98 120 -124 153 -26 33 -73 81 -104 107 l-56
48 -126 -1 c-69 0 -159 -6 -199 -13 -71 -13 -77 -16 -142 -78 -99 -93 -110
-120 -110 -279 0 -102 5 -148 24 -219 24 -93 97 -250 139 -301 14 -16 32 -46
40 -66 9 -21 32 -59 51 -84 20 -26 36 -52 36 -58 0 -7 16 -28 36 -47 19 -18
43 -52 53 -75 10 -22 32 -60 50 -84 17 -24 31 -49 31 -56 0 -8 15 -31 33 -51
18 -21 49 -63 70 -93 20 -30 53 -75 72 -100 72 -91 147 -203 162 -239 8 -20
28 -54 44 -76 16 -22 55 -78 86 -125 31 -47 71 -103 88 -125 18 -22 38 -51 45
-65 7 -14 45 -68 84 -120 39 -52 98 -140 131 -195 75 -124 108 -174 163 -236
23 -27 42 -58 42 -68 0 -10 13 -43 28 -74 l28 -56 -50 -19 c-28 -11 -78 -30
-111 -43 -33 -13 -76 -33 -95 -44 -19 -12 -55 -31 -80 -42 -25 -11 -69 -37
-99 -57 -29 -20 -58 -36 -65 -36 -7 0 -34 -14 -61 -31 -28 -17 -68 -38 -90
-46 -22 -7 -57 -27 -77 -43 -20 -17 -65 -45 -100 -63 -99 -52 -184 -103 -225
-134 -97 -75 -137 -102 -217 -148 -79 -46 -127 -79 -341 -238 -38 -29 -83 -61
-100 -71 -16 -11 -82 -65 -147 -120 -65 -56 -133 -111 -151 -124 -17 -13 -86
-74 -152 -136 -66 -62 -160 -150 -210 -194 -183 -166 -715 -723 -744 -780 -7
-15 -26 -40 -41 -57 -15 -16 -37 -46 -50 -65 -13 -19 -40 -54 -59 -77 -20 -23
-49 -60 -66 -83 -16 -22 -47 -61 -68 -87 -21 -25 -54 -75 -73 -112 -50 -95
-73 -132 -124 -195 -46 -58 -106 -159 -195 -331 -76 -146 -116 -216 -141 -250
-13 -17 -36 -60 -52 -96 -17 -37 -35 -70 -41 -73 -6 -4 -18 -33 -27 -64 -9
-31 -31 -82 -49 -112 -18 -30 -39 -73 -46 -95 -6 -22 -18 -49 -26 -61 -7 -12
-27 -62 -43 -113 -16 -50 -41 -108 -54 -128 -14 -21 -32 -67 -41 -102 -9 -36
-27 -85 -40 -111 -13 -26 -31 -75 -40 -111 -9 -35 -24 -80 -32 -99 -8 -19 -27
-98 -43 -175 -16 -77 -43 -192 -59 -255 -17 -63 -39 -176 -50 -250 -11 -74
-27 -157 -35 -185 -20 -70 -25 -105 -48 -315 -20 -193 -42 -715 -32 -785 7
-47 25 -79 59 -101 23 -15 258 -16 2702 -21 1473 -3 5560 -7 9083 -9 3523 -2
6570 -5 6772 -7 l368 -2 32 33 c33 32 33 33 36 140 5 174 -15 561 -31 622 -8
30 -19 102 -25 160 -24 253 -95 620 -191 985 -66 253 -117 429 -143 490 -11
28 -30 82 -43 120 -12 39 -34 93 -48 120 -14 28 -33 78 -42 110 -9 33 -28 76
-42 96 -13 20 -30 60 -38 89 -8 29 -25 65 -39 79 -14 15 -37 56 -51 91 -14 35
-33 73 -44 84 -10 12 -47 75 -81 141 -35 66 -71 132 -82 147 -10 15 -30 53
-44 84 -14 31 -51 89 -84 128 -32 39 -70 96 -84 126 -14 30 -51 87 -81 125
-31 39 -76 99 -101 135 -68 99 -229 297 -268 329 -10 8 -28 36 -42 62 -13 26
-61 90 -106 142 -46 52 -103 120 -128 151 -99 123 -198 233 -286 320 -213 208
-322 308 -374 343 -30 20 -86 64 -125 98 -38 33 -88 72 -110 86 -22 14 -76 59
-121 100 -93 86 -134 117 -264 201 -52 34 -126 87 -163 117 -87 71 -144 112
-232 163 -38 23 -84 52 -101 65 -17 13 -35 23 -41 23 -6 0 -61 36 -123 81 -63
44 -127 87 -144 96 -17 9 -47 29 -66 44 -19 15 -53 35 -74 44 -22 9 -54 27
-70 39 -17 13 -53 31 -81 41 -27 10 -62 28 -77 40 -44 37 -188 111 -263 135
-38 12 -93 34 -122 48 l-51 25 16 36 c20 44 118 197 132 206 9 5 56 80 120
189 14 24 39 60 55 82 17 21 41 57 55 81 39 66 142 220 177 266 18 23 46 67
62 97 16 30 58 94 94 142 36 47 73 100 82 118 22 43 113 178 125 185 18 11
120 153 134 186 8 19 27 50 43 71 15 20 36 49 46 65 9 15 42 62 72 103 29 41
66 95 81 120 55 91 128 206 146 230 42 55 132 215 144 258 17 54 18 211 3 282
-8 39 -19 57 -46 78 -20 15 -73 60 -118 99 -45 40 -100 80 -121 89 -46 19
-217 28 -281 14z m216 -82 c18 -6 73 -45 121 -87 48 -42 102 -87 120 -101 26
-21 33 -35 43 -91 15 -94 0 -152 -72 -274 -33 -55 -68 -111 -79 -125 -18 -24
-91 -138 -146 -230 -15 -25 -52 -79 -81 -120 -30 -41 -63 -88 -72 -103 -10
-16 -31 -45 -46 -65 -16 -21 -35 -52 -43 -71 -14 -33 -116 -175 -134 -186 -12
-7 -103 -142 -125 -185 -9 -18 -46 -71 -82 -118 -36 -48 -78 -112 -94 -142
-16 -30 -44 -74 -62 -97 -35 -46 -138 -200 -177 -266 -14 -24 -38 -60 -55 -81
-16 -22 -41 -58 -55 -82 -64 -109 -111 -184 -120 -189 -21 -13 -113 -163 -145
-238 -27 -61 -32 -84 -24 -98 16 -31 80 -65 188 -103 102 -36 231 -101 279
-141 15 -12 50 -30 77 -40 28 -10 64 -28 81 -41 16 -12 48 -30 70 -39 21 -9
55 -29 74 -44 19 -15 49 -35 66 -44 17 -9 81 -52 144 -96 62 -45 117 -81 123
-81 6 0 24 -10 41 -23 17 -13 63 -42 101 -65 88 -51 145 -92 232 -163 37 -30
111 -83 163 -117 130 -84 171 -115 264 -201 45 -41 99 -86 121 -100 22 -14 72
-53 110 -86 39 -34 95 -78 125 -98 50 -34 113 -92 366 -336 86 -84 184 -192
284 -317 25 -31 82 -99 128 -151 45 -52 93 -116 106 -142 14 -26 32 -54 42
-62 39 -32 200 -230 268 -329 25 -36 70 -96 101 -135 30 -38 67 -95 81 -125
14 -30 52 -87 84 -126 33 -39 70 -97 84 -128 14 -31 34 -69 44 -84 11 -15 47
-81 82 -147 34 -66 71 -129 81 -141 11 -11 30 -49 44 -84 14 -35 37 -76 51
-91 14 -14 31 -50 39 -79 8 -29 25 -69 38 -89 14 -20 33 -63 42 -96 9 -32 28
-82 42 -110 14 -27 36 -81 48 -120 13 -38 32 -92 43 -120 26 -61 77 -237 143
-490 96 -365 167 -732 191 -985 6 -58 17 -130 25 -160 16 -59 39 -531 28 -586
-3 -17 -17 -42 -31 -55 l-26 -24 -306 2 c-169 2 -3095 5 -6502 7 -10210 7
-11966 11 -11995 30 -45 30 -47 46 -46 293 1 129 4 239 6 246 3 7 14 102 25
212 19 199 30 269 50 335 6 19 19 96 30 170 11 74 34 187 51 250 16 63 43 178
59 255 16 77 35 156 43 175 8 19 23 64 32 99 9 36 27 85 40 111 13 26 31 75
40 111 9 35 27 81 41 102 13 20 38 78 54 128 16 51 36 101 43 113 8 12 20 39
26 61 7 22 28 65 46 95 18 30 40 81 49 112 9 31 21 60 27 64 6 3 24 36 41 73
16 36 39 79 52 96 25 34 65 104 141 250 89 172 149 273 195 331 51 63 74 100
124 195 19 37 52 87 73 112 21 26 52 65 68 87 17 23 46 60 66 83 19 23 46 58
59 77 13 19 35 49 50 65 15 17 34 42 41 57 32 63 597 649 809 839 58 52 139
127 180 166 41 39 90 82 107 95 18 13 86 68 151 124 65 55 131 109 147 120 17
10 62 42 100 71 214 159 262 192 341 238 80 46 120 73 217 148 41 31 126 82
225 134 35 18 80 46 100 63 20 16 55 36 77 43 22 8 62 29 90 46 27 17 54 31
61 31 7 0 36 16 65 36 30 20 74 46 99 57 25 11 61 30 80 42 19 12 55 29 80 38
88 31 175 69 193 85 27 24 20 64 -23 147 -22 42 -40 85 -40 95 0 11 -19 42
-42 69 -55 62 -88 112 -163 236 -33 55 -92 143 -131 195 -39 52 -77 106 -84
120 -7 14 -27 43 -45 65 -17 22 -57 78 -88 125 -31 47 -70 103 -86 125 -16 22
-36 56 -44 76 -15 36 -90 148 -162 239 -19 25 -52 70 -72 100 -21 30 -52 72
-70 93 -18 20 -33 43 -33 51 0 7 -14 32 -31 56 -18 24 -40 62 -50 84 -10 23
-34 57 -53 75 -20 19 -36 40 -36 47 0 6 -16 32 -36 58 -19 25 -42 63 -51 84
-8 20 -26 50 -40 66 -42 51 -115 208 -139 301 -30 116 -31 213 -3 271 11 24
49 70 84 102 59 56 68 61 133 72 39 6 102 12 140 13 69 2 69 2 124 -45 30 -26
75 -72 99 -102 24 -31 78 -98 120 -149 42 -51 88 -115 102 -142 26 -49 56 -97
150 -231 26 -38 58 -85 72 -104 49 -71 107 -157 151 -225 26 -38 59 -83 74
-100 15 -16 53 -75 85 -130 33 -55 71 -115 87 -133 15 -18 42 -59 58 -90 35
-65 88 -146 215 -331 50 -72 101 -153 115 -180 14 -27 38 -64 53 -82 82 -98
259 -374 282 -440 38 -106 81 -132 210 -127 81 3 96 6 132 31 23 16 69 34 106
42 35 7 89 27 118 44 31 17 81 34 119 40 36 6 87 22 115 37 84 43 304 111 433
133 67 11 135 27 150 34 33 17 183 51 315 72 54 8 144 26 200 40 215 52 465
96 635 111 97 8 193 19 212 24 19 4 82 13 140 19 58 6 143 16 190 21 260 30
420 35 1020 35 705 0 1203 -22 1375 -60 33 -7 107 -18 165 -25 58 -6 141 -17
185 -25 44 -8 132 -23 195 -34 63 -11 177 -32 253 -46 77 -14 169 -28 205 -31
78 -6 247 -42 421 -91 68 -18 153 -38 190 -42 36 -5 91 -20 121 -34 30 -14
105 -38 165 -52 61 -15 127 -36 148 -47 21 -11 79 -28 129 -39 61 -13 101 -28
120 -44 16 -14 54 -32 85 -41 31 -9 76 -29 100 -44 125 -79 250 -35 325 115
17 33 38 69 49 80 10 11 28 43 40 70 12 27 45 74 74 105 59 64 89 105 100 139
4 13 27 53 51 88 24 35 44 69 44 75 0 6 15 29 33 52 18 23 53 74 78 114 112
183 141 229 244 377 19 28 43 68 54 91 11 22 36 60 56 85 19 24 35 49 35 55 0
6 15 28 34 50 18 21 43 61 55 88 11 27 36 66 54 87 71 85 93 114 117 155 14
24 41 67 61 96 32 48 137 208 225 343 17 28 42 70 54 94 27 55 160 194 206
216 72 34 151 38 233 13z"/>
<path d="M23169 27719 c-94 -6 -130 -13 -190 -38 -41 -16 -108 -39 -149 -51
l-75 -21 -148 -152 c-165 -170 -197 -222 -244 -392 -22 -78 -25 -112 -26 -265
-2 -161 0 -184 26 -287 38 -155 103 -293 190 -406 36 -47 148 -137 202 -164
22 -10 61 -31 86 -46 30 -18 77 -33 130 -41 46 -8 109 -24 139 -36 49 -20 68
-21 180 -17 90 3 136 9 165 22 22 9 83 26 135 36 59 12 102 27 115 39 12 11
50 34 86 51 45 22 91 58 155 121 117 114 188 226 209 330 9 40 28 102 43 138
26 63 27 71 27 260 0 185 -1 197 -23 240 -13 25 -38 81 -56 125 -46 114 -90
177 -197 282 -101 99 -211 182 -287 214 -65 29 -261 69 -325 68 -28 -1 -104
-5 -168 -10z m433 -128 c76 -32 186 -115 285 -213 100 -98 150 -171 187 -270
13 -35 37 -88 53 -118 27 -52 28 -60 28 -190 0 -124 -3 -140 -27 -200 -15 -36
-34 -98 -43 -138 -31 -150 -208 -370 -355 -441 -35 -17 -73 -40 -85 -51 -13
-12 -56 -27 -115 -39 -52 -10 -113 -26 -135 -35 -68 -29 -161 -32 -225 -6 -30
12 -93 28 -139 36 -53 8 -100 23 -130 41 -25 15 -66 37 -91 50 -72 36 -170
123 -218 193 -67 99 -128 237 -159 362 -51 205 -30 409 61 598 30 63 59 99
178 222 l143 147 75 21 c41 12 108 35 149 51 109 45 265 53 411 23 58 -12 126
-31 152 -43z"/>
<path d="M14950 27710 c-61 -19 -239 -94 -280 -117 -69 -40 -132 -98 -235
-214 -125 -142 -155 -203 -190 -389 -25 -130 -27 -159 -21 -276 14 -266 18
-286 83 -414 70 -137 132 -217 222 -284 99 -74 234 -141 313 -155 36 -6 85
-18 108 -26 23 -8 79 -19 125 -25 90 -11 119 -8 295 31 52 11 118 23 145 26
51 5 62 12 235 126 174 115 304 303 359 517 44 169 53 249 41 340 -6 47 -13
104 -16 128 -6 44 -111 263 -154 321 -94 125 -298 311 -369 337 -25 10 -85 32
-133 51 l-88 33 -207 -1 c-115 0 -219 -4 -233 -9z m468 -93 c48 -19 108 -41
133 -51 54 -19 163 -110 264 -219 98 -105 112 -125 183 -265 56 -113 63 -133
73 -218 11 -99 5 -150 -32 -294 -54 -211 -182 -396 -349 -507 -173 -115 -184
-121 -235 -126 -27 -3 -93 -15 -145 -27 -143 -32 -187 -35 -261 -15 -35 10
-100 26 -144 35 -145 31 -339 151 -428 264 -53 68 -153 260 -162 309 -2 18 -9
91 -15 164 -9 123 -8 141 16 270 33 176 65 241 185 377 145 165 199 204 379
277 148 59 140 57 303 58 144 1 149 0 235 -32z"/>
<path d="M6120 21810 c-80 -5 -154 -14 -181 -24 -25 -9 -89 -24 -141 -35 -52
-10 -117 -30 -144 -43 -27 -14 -71 -31 -99 -37 -53 -13 -199 -89 -243 -126
-16 -13 -54 -36 -85 -50 -32 -15 -65 -37 -75 -49 -9 -11 -35 -33 -58 -47 -121
-79 -381 -371 -467 -524 -15 -27 -36 -59 -47 -70 -10 -11 -27 -38 -36 -60 -9
-22 -29 -58 -45 -80 -15 -22 -35 -67 -45 -100 -9 -33 -29 -82 -44 -110 -17
-31 -32 -81 -40 -130 -7 -44 -23 -114 -36 -155 -17 -57 -28 -135 -44 -325 -21
-248 -21 -281 -22 -4330 -1 -4707 1 -4853 72 -5045 16 -45 30 -98 30 -118 0
-37 31 -102 49 -102 10 0 26 -37 41 -100 6 -25 22 -62 36 -82 13 -21 34 -64
46 -95 11 -32 29 -69 38 -83 10 -14 31 -52 48 -85 47 -95 115 -180 256 -320
92 -91 149 -140 192 -162 33 -18 68 -41 78 -52 10 -11 44 -30 75 -41 31 -12
77 -35 102 -51 25 -16 61 -34 80 -40 19 -7 52 -25 74 -41 26 -18 106 -48 219
-83 97 -30 182 -55 187 -55 6 0 41 -13 78 -30 91 -40 232 -53 522 -48 l224 3
62 33 c38 19 89 36 130 42 143 20 223 40 280 68 32 17 84 38 114 47 67 20 155
71 345 200 120 81 175 126 289 240 139 139 218 233 251 297 9 18 28 49 43 68
26 34 44 67 137 245 82 156 85 165 100 248 8 45 22 118 31 162 26 129 28 527
26 4920 -2 4151 -2 4187 -38 4415 -8 52 -15 150 -15 218 0 149 -19 253 -65
347 -18 39 -37 87 -41 108 -3 21 -21 60 -39 86 -19 27 -39 67 -46 91 -8 25
-29 59 -50 79 -20 20 -40 46 -44 59 -16 55 -209 283 -345 407 -36 32 -101 94
-145 137 -44 42 -96 84 -116 92 -20 8 -50 26 -65 39 -59 49 -161 114 -200 127
-21 7 -65 26 -97 42 -32 16 -91 37 -130 47 -40 10 -87 25 -104 35 -18 9 -52
18 -75 21 -81 8 -653 12 -788 5z m690 -73 c48 -2 88 -10 110 -22 19 -10 67
-26 107 -36 39 -10 98 -31 130 -47 32 -16 76 -35 97 -42 39 -13 141 -78 200
-127 15 -13 45 -31 65 -39 19 -8 74 -52 121 -97 47 -45 117 -112 156 -148 137
-128 288 -310 318 -380 8 -19 30 -48 48 -66 19 -17 40 -50 47 -74 7 -23 27
-63 46 -90 18 -26 36 -65 39 -86 4 -21 23 -69 41 -108 46 -94 65 -198 65 -347
0 -68 7 -168 16 -223 8 -55 19 -143 25 -195 11 -107 17 -8899 6 -8917 -3 -5
-13 -48 -21 -94 -50 -276 -37 -236 -130 -414 -93 -178 -111 -211 -137 -245
-15 -19 -34 -50 -43 -68 -33 -64 -111 -157 -248 -293 -109 -109 -167 -157
-283 -235 -189 -128 -277 -179 -344 -199 -30 -9 -82 -30 -114 -47 -57 -28
-137 -48 -280 -68 -41 -6 -92 -22 -130 -42 -62 -33 -62 -33 -232 -35 -236 -4
-371 10 -456 47 -37 17 -72 30 -78 30 -5 0 -90 25 -187 55 -113 35 -193 65
-219 83 -22 16 -55 34 -74 41 -19 6 -55 24 -80 40 -25 16 -71 39 -102 51 -31
11 -65 30 -75 41 -11 12 -40 32 -66 45 -104 53 -349 301 -418 423 -19 34 -49
86 -67 116 -17 31 -41 80 -52 110 -11 30 -32 72 -45 93 -14 20 -30 60 -37 87
-14 59 -36 105 -49 105 -16 0 -40 57 -40 94 0 19 -14 71 -30 116 -71 192 -73
343 -72 4985 1 3987 1 4022 22 4270 16 190 27 268 44 325 13 41 29 111 36 155
8 49 23 99 40 130 15 28 35 77 44 110 10 33 30 78 45 100 16 22 36 58 45 80 9
22 26 49 36 60 11 11 32 43 47 70 87 155 342 440 462 516 24 16 50 37 57 47 7
11 39 32 71 46 31 15 69 38 85 51 44 37 190 113 243 126 28 6 72 23 99 37 27
13 92 33 144 43 52 11 116 26 141 35 74 26 453 36 811 21z"/>
<path d="M9986 21800 c-183 -9 -191 -10 -235 -37 -25 -16 -54 -44 -66 -63
l-20 -35 1 -7460 1 -7460 21 -157 c12 -86 33 -217 47 -290 26 -138 91 -344
123 -388 10 -14 49 -85 86 -159 74 -148 85 -162 264 -366 117 -132 177 -190
308 -295 30 -25 70 -57 87 -71 18 -14 64 -42 103 -61 39 -20 79 -41 90 -47 38
-21 180 -83 233 -102 30 -11 70 -28 89 -39 48 -29 172 -56 337 -74 77 -9 160
-22 185 -30 37 -11 277 -15 1290 -21 685 -4 1288 -4 1340 0 l95 7 67 67 c57
57 68 75 82 126 9 33 24 80 32 105 9 25 24 72 34 105 15 52 59 153 118 275 9
19 44 62 77 95 76 76 158 110 302 125 54 5 134 14 178 20 44 5 211 12 370 16
265 5 298 8 384 31 51 13 143 28 205 33 61 6 474 10 917 10 676 0 814 2 854
15 61 18 148 77 166 113 19 38 25 371 9 527 -13 124 -27 166 -75 223 -32 38
-115 80 -181 91 -265 47 -302 55 -339 76 -22 13 -71 28 -110 34 -47 8 -88 23
-126 46 -36 22 -78 38 -119 44 -37 6 -78 21 -99 35 -20 14 -61 34 -91 44 -46
16 -354 161 -442 208 -14 8 -59 31 -100 52 -81 42 -127 71 -195 120 -25 19
-64 42 -87 52 -52 22 -150 84 -195 123 -19 16 -53 38 -76 48 -23 10 -50 28
-61 40 -10 12 -39 33 -64 48 -122 72 -150 92 -235 166 -126 109 -160 135 -230
178 -33 20 -121 91 -195 158 -74 68 -146 132 -159 143 -222 196 -322 287 -405
366 -106 102 -385 409 -439 483 -38 52 -190 250 -248 322 -23 28 -56 82 -75
120 -18 39 -42 81 -53 95 -72 95 -169 261 -202 343 -11 27 -31 64 -45 82 -14
19 -34 57 -45 86 -11 29 -29 63 -39 76 -10 13 -30 55 -45 93 -14 38 -32 74
-40 80 -8 6 -26 44 -41 83 -15 40 -35 86 -45 102 -9 17 -22 53 -27 80 -6 28
-29 102 -52 165 -23 63 -50 142 -60 175 -10 33 -34 106 -54 163 -19 56 -40
129 -46 162 -6 33 -17 77 -24 97 -29 83 -87 394 -132 708 -40 279 -53 508 -54
927 0 188 4 261 15 305 9 33 15 101 15 163 0 97 15 270 41 478 5 46 19 111 30
145 10 34 28 118 39 187 26 160 54 290 90 410 16 52 36 120 44 150 17 67 58
190 97 290 15 41 37 110 48 153 11 43 30 95 44 115 13 20 30 55 37 77 7 22 22
58 35 80 13 22 32 72 44 111 11 39 30 79 41 89 10 9 31 48 45 85 14 38 33 74
42 82 9 7 24 31 34 53 10 22 43 83 74 135 31 52 69 123 85 157 16 34 47 88 68
120 22 32 65 96 96 143 31 47 77 112 101 145 25 33 57 80 72 105 23 39 47 68
141 174 9 11 31 38 47 61 84 115 325 383 527 585 85 85 159 162 164 171 5 9
41 45 79 79 39 35 102 91 140 126 39 34 104 91 146 126 41 35 112 95 156 133
132 114 175 149 208 170 18 11 54 34 80 50 26 17 67 46 90 65 44 37 97 72 201
131 35 20 75 46 90 58 15 12 32 21 39 21 6 0 38 17 71 38 76 49 225 124 289
145 28 10 95 46 149 82 77 49 115 68 170 80 39 9 93 29 121 44 27 16 75 34
105 41 30 7 66 18 80 25 14 7 88 32 165 55 77 23 149 49 160 56 11 7 53 18 93
24 40 5 118 21 175 35 292 72 407 97 481 106 44 5 134 18 199 29 64 11 190 24
280 30 89 6 200 18 246 26 120 20 734 20 875 -1 55 -8 196 -21 311 -30 273
-20 341 -29 450 -59 116 -33 204 -52 284 -61 35 -4 94 -18 130 -30 36 -13 104
-29 151 -35 47 -6 110 -23 140 -36 30 -14 102 -37 160 -50 58 -14 125 -34 150
-46 25 -11 75 -28 112 -38 37 -10 81 -28 98 -40 17 -12 63 -30 102 -40 38 -10
86 -29 106 -43 63 -41 185 -103 238 -121 28 -9 72 -30 98 -46 26 -17 75 -42
109 -55 33 -14 70 -34 81 -44 12 -10 44 -31 71 -45 76 -41 156 -91 191 -120
29 -24 107 -76 259 -174 39 -25 81 -54 95 -64 14 -10 50 -36 80 -58 30 -22 80
-61 110 -85 30 -25 78 -63 105 -84 66 -50 264 -239 395 -376 58 -61 172 -178
255 -260 156 -156 338 -368 404 -470 14 -22 39 -57 56 -77 45 -55 92 -123 236
-343 72 -110 147 -223 166 -252 19 -28 41 -73 49 -100 8 -26 30 -63 48 -83 19
-19 37 -45 41 -58 8 -27 105 -225 186 -382 33 -63 71 -151 84 -195 15 -48 38
-97 59 -122 22 -28 35 -58 39 -88 4 -25 18 -65 31 -88 13 -23 29 -64 35 -91 7
-27 22 -69 35 -95 24 -47 40 -109 51 -192 3 -25 19 -73 34 -106 18 -36 32 -88
36 -127 4 -37 11 -69 16 -72 5 -3 9 -14 9 -25 0 -11 11 -42 25 -69 26 -51 44
-149 45 -236 0 -28 14 -98 30 -155 23 -79 33 -139 40 -249 5 -80 15 -163 22
-185 18 -55 17 -1152 0 -1385 -19 -245 -31 -339 -49 -373 -26 -52 -33 -87 -42
-213 -7 -106 -12 -130 -39 -185 -20 -41 -35 -93 -41 -144 -12 -83 -27 -142
-42 -161 -5 -6 -19 -56 -30 -110 -12 -55 -36 -135 -54 -179 -19 -44 -45 -114
-58 -155 -54 -164 -167 -432 -206 -490 -10 -14 -28 -52 -41 -85 -36 -93 -187
-393 -213 -425 -13 -15 -29 -49 -36 -74 -7 -29 -24 -59 -47 -81 -19 -20 -41
-50 -49 -68 -18 -44 -97 -159 -170 -248 -61 -74 -95 -122 -151 -210 -53 -82
-631 -688 -835 -874 -131 -120 -237 -213 -264 -229 -16 -11 -64 -47 -105 -80
-114 -94 -221 -170 -422 -299 -47 -31 -89 -61 -93 -67 -8 -12 -122 -90 -189
-129 -22 -13 -65 -39 -93 -57 -29 -19 -56 -34 -61 -34 -4 0 -30 -14 -58 -32
-49 -32 -120 -71 -249 -135 -38 -20 -83 -46 -98 -59 -15 -13 -51 -30 -79 -39
-28 -8 -69 -25 -92 -39 -23 -13 -64 -31 -93 -40 -28 -10 -63 -26 -77 -37 -14
-11 -54 -32 -88 -46 -35 -14 -81 -35 -103 -48 -22 -13 -67 -28 -100 -35 -33
-7 -87 -27 -120 -45 -35 -19 -83 -35 -115 -39 -30 -4 -109 -25 -175 -46 -66
-21 -149 -45 -185 -53 -127 -30 -292 -141 -335 -226 -12 -25 -35 -68 -50 -96
l-26 -50 3 -232 c3 -217 4 -233 24 -260 27 -35 69 -60 136 -80 44 -13 153 -17
613 -23 727 -10 1285 -33 1470 -60 77 -12 223 -25 325 -30 102 -5 235 -16 295
-24 61 -8 155 -20 210 -26 130 -15 268 -47 326 -76 64 -32 153 -134 184 -211
28 -71 70 -280 80 -398 8 -96 21 -129 68 -174 34 -32 42 -34 129 -42 51 -4
624 -4 1273 1 1034 6 1188 9 1245 24 36 8 114 22 173 31 59 8 120 21 136 29
15 8 83 33 152 56 68 23 169 67 224 98 55 30 125 68 155 84 30 15 83 50 117
76 34 26 87 67 118 91 32 24 140 126 242 228 145 145 190 196 208 237 13 29
35 66 49 83 15 17 33 48 42 69 9 21 45 96 81 168 58 117 97 225 124 339 21 86
40 308 49 562 6 166 10 3093 11 7577 1 6779 -1 7309 -16 7341 -9 19 -25 43
-36 53 -19 17 -218 17 -4257 14 -6052 -5 -10157 -4 -12362 2 -1053 4 -2000 2
-2104 -2z m8019 -73 c2233 1 5537 3 7342 4 2594 2 3284 0 3296 -10 8 -6 23
-28 32 -47 15 -32 16 -554 16 -7282 -1 -4457 -5 -7351 -11 -7517 -17 -491 -48
-648 -173 -901 -36 -72 -72 -147 -81 -168 -9 -21 -27 -52 -42 -69 -14 -17 -36
-54 -49 -83 -18 -41 -63 -92 -204 -233 -100 -99 -206 -200 -237 -223 -30 -24
-83 -64 -117 -90 -34 -26 -87 -61 -117 -76 -30 -16 -100 -54 -155 -84 -55 -31
-156 -75 -224 -98 -69 -23 -137 -48 -152 -56 -16 -8 -77 -21 -136 -29 -59 -9
-137 -23 -173 -32 -57 -14 -203 -17 -1185 -23 -616 -4 -1162 -4 -1213 0 -84 6
-96 10 -124 36 -42 39 -55 75 -63 169 -10 118 -52 327 -81 399 -30 77 -127
187 -193 220 -58 29 -196 61 -326 76 -55 6 -149 18 -210 26 -60 8 -193 19
-295 24 -102 5 -248 18 -325 30 -185 27 -743 50 -1470 60 -584 8 -607 9 -692
54 -62 31 -68 51 -71 241 -3 168 -3 171 23 220 15 28 37 70 50 96 41 81 200
187 325 216 36 8 119 32 185 53 66 21 145 42 175 46 32 4 80 20 115 39 33 18
87 38 120 45 33 7 78 22 100 35 22 13 68 34 103 48 34 14 74 35 88 46 14 11
49 27 77 37 29 9 70 27 93 40 23 14 64 31 92 39 28 9 64 26 79 39 15 13 60 39
98 59 129 64 200 103 249 135 28 18 54 32 58 32 5 0 32 15 61 34 28 18 71 44
93 57 67 39 181 117 189 129 4 6 46 36 93 67 201 130 308 205 422 299 41 33
93 72 115 86 22 14 56 40 75 59 20 19 78 72 130 119 227 204 832 832 894 929
56 88 90 135 151 210 72 88 152 204 170 247 7 17 29 47 49 67 22 23 40 53 47
82 7 26 23 60 36 75 26 32 177 332 213 425 13 33 31 71 41 85 39 58 152 326
206 490 13 41 39 111 58 155 18 44 42 124 54 179 11 54 25 104 30 110 15 19
30 78 42 161 6 51 21 103 41 144 27 55 32 79 39 185 9 126 16 161 42 213 18
34 30 127 49 373 18 233 18 1449 0 1505 -7 22 -17 105 -22 185 -7 110 -17 170
-40 249 -16 57 -30 127 -30 155 -1 87 -19 185 -45 236 -14 27 -25 58 -25 69 0
11 -5 23 -10 26 -6 3 -7 17 -4 31 3 13 1 31 -6 39 -6 8 -9 19 -5 25 3 5 -10
45 -29 88 -20 44 -40 109 -46 148 -12 85 -21 118 -48 170 -12 23 -26 63 -33
90 -6 27 -22 68 -35 91 -13 23 -27 63 -31 88 -4 30 -17 60 -39 88 -21 25 -44
74 -59 122 -13 44 -51 132 -84 195 -88 170 -181 361 -187 387 -4 13 -21 38
-40 55 -21 20 -39 51 -48 80 -8 27 -30 72 -49 101 -19 29 -94 142 -166 252
-144 220 -191 288 -236 343 -17 20 -42 55 -56 77 -66 102 -248 313 -409 475
-85 85 -202 205 -260 265 -129 136 -328 325 -395 376 -27 21 -75 59 -105 84
-30 24 -80 63 -110 85 -30 22 -66 48 -80 58 -14 10 -56 39 -95 64 -152 98
-230 150 -259 174 -35 29 -115 79 -191 120 -27 14 -59 35 -71 45 -11 10 -48
30 -81 44 -34 13 -83 38 -109 55 -26 16 -70 37 -98 46 -53 18 -175 80 -238
121 -20 14 -68 33 -106 43 -39 10 -85 28 -102 40 -17 12 -61 30 -98 40 -37 10
-87 27 -112 38 -25 12 -92 32 -150 46 -58 13 -130 36 -160 50 -30 13 -93 30
-140 36 -47 6 -115 22 -151 35 -36 12 -95 26 -130 30 -80 9 -168 28 -284 61
-109 30 -177 39 -450 59 -115 9 -256 22 -311 30 -143 21 -874 21 -995 1 -46
-8 -157 -20 -246 -26 -90 -6 -216 -19 -280 -30 -65 -11 -155 -24 -199 -29 -74
-9 -189 -34 -481 -106 -57 -14 -135 -30 -175 -35 -40 -6 -82 -17 -93 -24 -11
-7 -83 -33 -160 -56 -77 -23 -151 -48 -165 -55 -14 -7 -50 -18 -80 -25 -30 -7
-78 -25 -105 -41 -28 -15 -82 -35 -121 -44 -55 -12 -93 -31 -170 -80 -54 -36
-121 -72 -149 -82 -64 -21 -213 -96 -289 -145 -33 -21 -65 -38 -71 -38 -7 0
-24 -9 -39 -21 -15 -12 -55 -38 -90 -58 -104 -59 -157 -94 -201 -131 -23 -19
-64 -48 -90 -65 -26 -16 -62 -39 -80 -50 -33 -21 -76 -56 -208 -170 -44 -38
-115 -98 -156 -133 -42 -34 -87 -72 -101 -85 -13 -12 -78 -70 -144 -129 -66
-59 -124 -115 -130 -125 -5 -10 -79 -87 -164 -173 -198 -198 -444 -471 -524
-581 -15 -20 -36 -48 -47 -60 -12 -13 -43 -49 -69 -79 -27 -30 -60 -75 -75
-100 -15 -25 -47 -72 -72 -105 -24 -33 -70 -98 -101 -145 -31 -47 -74 -111
-96 -143 -21 -32 -52 -86 -68 -120 -16 -34 -54 -105 -85 -157 -31 -52 -64
-113 -74 -135 -10 -22 -25 -46 -34 -53 -9 -8 -28 -44 -42 -82 -14 -37 -35 -76
-45 -85 -11 -10 -30 -50 -41 -89 -12 -39 -31 -89 -44 -111 -13 -22 -28 -58
-35 -80 -7 -22 -24 -57 -37 -77 -14 -20 -33 -72 -44 -115 -11 -43 -33 -112
-48 -153 -39 -100 -80 -223 -97 -290 -8 -30 -28 -98 -44 -150 -36 -120 -64
-250 -90 -410 -11 -69 -29 -153 -39 -187 -11 -34 -25 -99 -30 -145 -26 -208
-41 -381 -41 -478 0 -61 -6 -130 -15 -163 -11 -43 -15 -127 -16 -354 -1 -445
13 -703 55 -998 45 -314 103 -625 132 -708 7 -20 18 -64 24 -97 6 -33 27 -106
46 -162 20 -57 44 -130 54 -163 10 -33 37 -112 60 -175 23 -63 46 -137 52
-165 5 -27 18 -63 27 -80 10 -16 30 -62 45 -102 15 -39 33 -77 41 -83 8 -6 26
-42 40 -80 15 -38 35 -80 45 -93 10 -13 28 -47 39 -76 11 -29 31 -67 45 -86
14 -18 34 -55 45 -82 33 -82 130 -248 202 -343 11 -14 35 -56 53 -95 19 -38
52 -92 75 -120 58 -72 210 -270 248 -322 54 -75 333 -381 444 -488 58 -55 170
-158 249 -229 80 -70 179 -159 220 -196 41 -37 111 -100 155 -139 44 -40 107
-88 140 -108 70 -43 103 -69 230 -178 85 -74 113 -94 235 -166 25 -15 54 -36
64 -48 11 -12 38 -30 61 -40 23 -10 57 -32 76 -48 45 -39 143 -101 195 -123
23 -10 62 -33 87 -52 68 -49 114 -78 195 -120 41 -21 86 -44 100 -52 88 -47
396 -192 442 -208 30 -10 71 -30 91 -44 21 -14 62 -29 99 -35 41 -6 83 -22
119 -44 38 -23 79 -38 126 -46 39 -6 88 -21 110 -34 25 -14 87 -31 165 -45 69
-12 146 -26 171 -30 102 -18 171 -63 211 -136 20 -39 28 -74 38 -169 14 -141
9 -369 -9 -405 -7 -14 -34 -40 -60 -58 -93 -64 -64 -62 -950 -62 -443 0 -856
-4 -917 -10 -62 -5 -154 -20 -205 -33 -86 -23 -119 -26 -384 -31 -159 -4 -326
-11 -370 -16 -44 -6 -125 -15 -179 -20 -106 -11 -204 -44 -267 -88 -48 -34
-123 -135 -148 -199 -11 -29 -32 -74 -46 -101 -14 -27 -34 -78 -44 -113 -10
-35 -26 -84 -35 -109 -8 -25 -23 -72 -32 -105 -13 -51 -26 -70 -77 -121 l-62
-62 -90 -7 c-49 -4 -625 -4 -1280 0 -964 6 -1199 10 -1235 21 -25 8 -108 21
-185 30 -165 18 -289 45 -337 74 -19 11 -59 28 -89 39 -53 19 -195 81 -233
102 -11 6 -51 27 -90 47 -39 19 -85 47 -103 61 -17 14 -57 46 -87 71 -130 105
-180 152 -297 285 -180 203 -191 218 -265 366 -37 74 -76 145 -86 159 -32 44
-97 250 -123 388 -14 73 -35 204 -47 290 l-21 157 -1 7400 c-1 7039 0 7402 17
7432 9 18 37 44 61 58 42 24 56 27 233 34 103 5 1023 6 2043 3 1020 -4 3682
-6 5915 -5z"/>
<path d="M31670 21803 c-46 -3 -269 -52 -375 -82 -52 -15 -197 -80 -214 -95
-9 -8 -43 -27 -76 -42 -33 -15 -78 -42 -100 -61 -78 -64 -134 -109 -191 -153
-90 -68 -462 -448 -495 -505 -15 -27 -37 -55 -47 -62 -27 -16 -119 -190 -132
-249 -6 -26 -25 -79 -41 -117 -21 -46 -33 -97 -40 -155 -5 -48 -13 -370 -19
-717 -5 -346 -14 -783 -19 -970 -13 -442 -14 -854 -9 -4640 4 -3423 3 -3396
55 -3580 88 -310 86 -304 127 -355 80 -99 123 -155 212 -275 120 -164 339
-381 429 -427 33 -16 71 -40 85 -52 58 -52 167 -108 375 -193 33 -13 95 -40
138 -60 51 -23 108 -40 168 -49 52 -7 114 -24 146 -40 81 -38 155 -44 448 -35
251 7 262 9 322 34 35 15 98 32 140 38 85 11 181 35 199 50 7 5 48 23 93 39
151 55 336 158 518 289 105 76 335 296 384 368 18 26 45 63 61 81 15 18 39 54
52 80 13 26 33 55 45 66 11 10 28 41 37 70 9 28 29 75 45 104 15 29 33 78 39
110 7 31 25 111 41 177 26 108 30 148 39 390 6 149 15 380 20 515 14 331 13
8070 0 8390 -6 129 -16 319 -24 421 -12 161 -17 194 -39 240 -13 30 -28 81
-32 114 -7 61 -34 137 -53 149 -6 3 -20 31 -31 61 -12 30 -36 78 -55 105 -19
27 -37 63 -41 80 -4 16 -28 56 -53 89 -77 96 -245 282 -305 336 -69 63 -229
185 -265 204 -15 7 -43 28 -62 47 -19 18 -66 47 -103 63 -142 64 -364 149
-414 160 -29 6 -69 20 -90 31 -36 19 -54 20 -438 18 -220 -1 -425 -3 -455 -5z
m833 -83 c21 -11 61 -25 90 -31 106 -23 486 -184 508 -217 8 -11 37 -33 65
-49 128 -76 284 -211 418 -362 141 -158 193 -227 201 -261 4 -17 22 -53 41
-80 19 -27 43 -75 55 -105 11 -30 25 -58 31 -61 19 -12 46 -88 53 -149 4 -33
19 -84 32 -114 22 -46 27 -79 39 -240 8 -102 18 -292 24 -421 13 -314 13
-7948 0 -8275 -5 -132 -14 -361 -20 -510 -9 -242 -13 -282 -39 -390 -16 -66
-34 -146 -41 -177 -6 -32 -24 -81 -39 -110 -16 -29 -36 -76 -45 -104 -9 -29
-26 -60 -37 -70 -12 -11 -32 -40 -45 -66 -13 -26 -37 -62 -52 -80 -16 -18 -43
-54 -60 -80 -49 -71 -270 -283 -375 -358 -182 -132 -367 -235 -518 -290 -45
-16 -86 -34 -93 -39 -18 -15 -114 -39 -199 -50 -42 -6 -105 -23 -140 -38 -59
-26 -72 -27 -272 -33 -250 -6 -302 -1 -377 34 -33 16 -95 33 -147 40 -60 9
-117 26 -168 49 -43 20 -105 47 -138 60 -208 85 -317 141 -375 193 -14 12 -52
36 -85 52 -88 45 -302 258 -421 419 -87 119 -130 174 -210 273 -41 51 -39 45
-127 355 -51 184 -51 157 -55 3580 -4 3902 -3 4098 9 4520 5 187 14 624 19
970 6 347 14 669 19 717 7 58 19 109 40 155 16 38 35 91 41 117 13 59 105 233
130 246 10 5 31 33 48 62 34 60 392 427 486 498 57 44 113 89 191 153 22 19
67 46 100 61 33 15 67 34 76 42 17 15 162 80 214 95 106 30 329 79 375 82 30
2 208 4 395 5 324 2 342 1 378 -18z"/>
<path d="M18960 16370 c-125 -8 -152 -13 -220 -42 -25 -11 -90 -26 -146 -33
-56 -7 -123 -23 -149 -35 -27 -12 -71 -29 -99 -37 -84 -25 -363 -151 -676
-306 -195 -97 -316 -173 -415 -262 -22 -20 -69 -57 -105 -82 -84 -61 -287
-262 -334 -333 -20 -30 -47 -70 -59 -89 -12 -18 -55 -82 -94 -142 -40 -60 -73
-113 -73 -118 0 -6 -19 -38 -43 -73 -59 -87 -214 -395 -239 -476 -11 -37 -31
-87 -43 -113 -13 -25 -30 -71 -38 -103 -9 -32 -27 -75 -42 -95 -31 -46 -45
-92 -45 -151 0 -26 -15 -88 -36 -145 -48 -135 -58 -281 -50 -685 7 -340 17
-461 46 -559 11 -36 27 -123 35 -193 12 -104 20 -138 44 -185 17 -33 35 -89
41 -128 6 -38 20 -90 31 -115 12 -25 27 -66 35 -92 8 -26 25 -69 39 -95 13
-27 32 -80 43 -119 21 -74 43 -124 73 -162 10 -13 27 -51 39 -86 25 -77 108
-181 173 -219 40 -23 57 -27 129 -27 113 0 151 22 194 107 16 34 38 71 48 81
9 11 26 42 36 70 11 27 30 66 44 86 13 20 34 66 46 102 12 35 33 78 47 94 14
17 34 60 45 97 11 37 26 76 34 88 8 12 23 48 34 81 11 32 44 106 74 164 93
181 206 469 206 525 0 12 11 43 24 68 15 27 37 107 56 202 17 86 39 176 47
198 11 29 17 92 21 205 2 89 8 162 13 162 5 0 9 -7 9 -15 0 -29 32 -78 107
-164 138 -159 286 -287 369 -320 27 -10 95 -42 152 -71 123 -62 191 -75 347
-67 130 6 254 36 345 81 36 18 82 39 102 45 84 28 389 345 427 444 23 60 51
268 51 378 0 92 -5 134 -28 219 -42 163 -104 252 -321 468 -96 95 -187 180
-202 188 -16 8 -29 17 -29 20 0 9 591 -6 667 -16 99 -13 362 -128 502 -218
123 -80 266 -212 413 -382 57 -66 114 -155 168 -265 17 -33 39 -73 49 -90 11
-16 36 -84 56 -150 l36 -120 -3 -315 -3 -315 -39 -115 c-21 -63 -51 -144 -66
-180 -15 -36 -30 -77 -34 -91 -3 -14 -17 -42 -31 -63 -13 -20 -32 -50 -40 -66
-9 -16 -45 -62 -81 -102 -37 -40 -78 -89 -93 -108 -38 -52 -221 -222 -346
-324 -105 -84 -178 -126 -310 -180 -33 -13 -82 -33 -110 -44 -34 -14 -98 -25
-195 -34 -274 -25 -441 -11 -580 49 -59 25 -79 28 -207 31 -134 4 -145 2 -195
-21 -74 -34 -125 -78 -204 -177 -38 -47 -103 -119 -144 -160 -132 -132 -393
-371 -450 -412 -176 -125 -197 -142 -271 -231 l-49 -58 0 -85 c0 -54 5 -95 14
-112 35 -67 162 -151 255 -168 41 -8 111 -35 186 -72 66 -33 154 -70 195 -82
41 -12 127 -39 190 -59 85 -28 148 -41 240 -51 75 -7 155 -23 200 -38 l75 -24
520 -2 c514 -1 521 0 595 22 41 13 113 30 160 38 103 18 342 97 390 129 20 12
58 34 85 48 28 14 77 53 110 86 l59 61 4 103 3 102 -35 54 c-33 51 -56 123
-56 177 0 14 -5 34 -10 45 -19 35 0 39 44 8 24 -17 72 -39 107 -49 35 -10 84
-26 109 -35 36 -13 69 -16 160 -13 105 4 123 8 210 43 52 22 136 67 185 100
110 76 211 138 288 178 78 40 343 300 384 377 58 107 102 180 132 217 17 21
37 58 46 83 8 25 26 66 40 91 30 55 90 245 100 314 4 28 20 91 35 140 18 58
32 136 39 218 7 69 18 161 27 203 45 240 45 911 -1 1109 -8 38 -22 114 -30
169 -24 165 -65 337 -96 401 -16 33 -38 92 -50 130 -12 39 -30 88 -41 110 -11
21 -29 64 -39 94 -11 30 -32 75 -48 100 -16 25 -34 63 -40 83 -7 20 -25 54
-41 76 -15 22 -37 57 -48 78 -11 22 -30 48 -42 59 -12 11 -31 38 -42 60 -11
22 -28 49 -38 60 -10 11 -30 40 -43 64 -35 60 -297 339 -433 459 -46 40 -89
74 -167 129 -18 13 -52 39 -77 58 -70 55 -222 151 -318 200 -48 24 -98 51
-112 59 -84 49 -371 179 -455 206 -55 18 -125 43 -155 56 -35 14 -102 29 -178
38 -89 11 -135 22 -172 41 -43 22 -71 27 -198 35 -165 11 -607 11 -782 0z
m722 -70 c127 -8 155 -13 198 -35 37 -19 83 -30 172 -41 76 -9 143 -24 178
-38 30 -13 100 -38 155 -56 84 -27 371 -157 455 -206 14 -8 64 -35 112 -59 96
-49 248 -145 318 -200 25 -19 59 -45 77 -58 153 -109 243 -191 447 -408 65
-70 129 -146 143 -170 13 -24 33 -53 43 -64 10 -11 27 -38 38 -60 11 -22 30
-49 42 -60 12 -11 31 -37 42 -59 11 -21 33 -56 48 -78 16 -22 34 -56 41 -76 6
-20 24 -58 40 -83 16 -25 37 -70 48 -100 10 -30 28 -73 39 -94 11 -22 29 -71
41 -110 12 -38 34 -97 50 -130 31 -64 72 -236 96 -401 8 -55 22 -131 30 -169
45 -193 45 -756 1 -989 -9 -42 -20 -134 -27 -203 -7 -82 -21 -160 -39 -218
-15 -49 -31 -112 -35 -140 -10 -69 -70 -259 -100 -314 -14 -25 -32 -66 -40
-91 -9 -25 -29 -62 -46 -83 -30 -37 -74 -109 -132 -217 -41 -77 -296 -327
-375 -368 -76 -39 -177 -101 -287 -177 -103 -70 -255 -135 -335 -142 -38 -3
-69 0 -100 12 -25 9 -74 25 -108 35 -35 10 -89 35 -119 56 -76 52 -123 53
-164 4 -34 -41 -37 -76 -9 -130 11 -22 20 -50 20 -64 0 -54 23 -126 56 -177
31 -48 35 -59 30 -99 -5 -37 -16 -54 -59 -98 -28 -30 -74 -65 -102 -79 -27
-14 -65 -36 -85 -48 -48 -32 -287 -111 -390 -129 -47 -8 -119 -25 -160 -38
-74 -22 -84 -22 -535 -21 l-460 1 -75 25 c-45 14 -126 30 -200 37 -92 10 -155
23 -240 51 -63 20 -149 47 -190 59 -41 12 -129 49 -195 82 -75 37 -145 64
-186 72 -49 9 -85 25 -136 59 -100 65 -134 114 -119 170 7 31 128 158 196 207
30 21 80 57 110 78 58 42 319 280 455 417 44 44 111 118 149 165 76 94 143
149 211 175 64 25 180 17 265 -19 36 -15 103 -35 150 -44 168 -33 637 -14 745
30 28 11 77 31 110 44 132 54 205 96 309 180 127 103 320 283 357 334 15 19
56 68 93 108 36 40 72 86 81 102 8 16 27 46 40 66 14 21 28 49 31 63 4 14 19
55 34 91 15 36 45 117 66 180 l39 115 3 375 3 376 -36 119 c-20 66 -45 134
-56 150 -10 17 -32 57 -49 90 -81 164 -130 231 -290 398 -102 107 -211 201
-301 259 -138 90 -402 204 -502 218 -34 5 -237 12 -452 16 -385 7 -390 6 -415
-14 -24 -20 -24 -22 -10 -48 8 -16 48 -50 88 -77 40 -27 145 -122 235 -211
204 -203 267 -296 309 -456 15 -58 28 -129 28 -159 0 -59 -34 -275 -51 -318
-37 -98 -335 -407 -418 -434 -20 -7 -65 -27 -101 -45 -71 -35 -190 -68 -285
-79 -94 -10 -172 8 -287 65 -57 29 -125 61 -152 71 -84 34 -226 157 -363 315
-44 50 -85 107 -92 125 -23 62 -36 83 -62 98 -34 19 -83 1 -98 -37 -5 -15 -12
-97 -14 -182 -3 -106 -9 -168 -20 -197 -8 -22 -30 -112 -47 -198 -19 -95 -41
-175 -56 -202 -13 -25 -24 -56 -24 -68 0 -56 -113 -344 -206 -525 -30 -58 -63
-132 -74 -164 -11 -33 -26 -69 -34 -81 -8 -12 -23 -51 -34 -88 -11 -37 -31
-80 -45 -97 -14 -16 -35 -59 -47 -94 -12 -36 -33 -82 -46 -102 -14 -20 -34
-61 -45 -90 -11 -28 -27 -58 -35 -65 -9 -7 -28 -41 -44 -75 -23 -51 -36 -67
-69 -83 -22 -12 -50 -21 -61 -21 -69 0 -195 129 -231 237 -11 34 -28 72 -38
85 -30 38 -52 88 -73 162 -11 39 -30 92 -43 119 -14 26 -31 69 -39 95 -8 26
-23 67 -35 92 -11 25 -25 77 -31 115 -6 39 -24 95 -41 128 -24 47 -32 81 -44
185 -8 70 -24 157 -35 193 -27 92 -38 212 -46 504 -8 340 4 488 50 620 21 57
36 119 36 145 0 59 14 105 45 151 15 20 33 63 42 95 8 32 25 78 38 103 12 26
32 76 43 113 25 81 180 389 239 476 24 35 43 67 43 73 0 5 33 58 73 118 39 60
82 124 94 142 12 19 39 59 60 89 48 72 240 263 323 322 36 26 83 63 105 83
101 90 220 165 415 262 313 155 592 281 676 306 28 8 72 25 99 37 26 12 93 28
149 35 56 7 121 22 146 33 25 10 59 22 75 27 84 22 564 31 807 15z"/>
</g>
</svg>
