<?xml version="1.0" standalone="no"?>
<!DOCTYPE svg PUBLIC "-//W3C//DTD SVG 20010904//EN"
 "http://www.w3.org/TR/2001/REC-SVG-20010904/DTD/svg10.dtd">
<svg version="1.0" xmlns="http://www.w3.org/2000/svg"
 width="448.000000pt" height="448.000000pt" viewBox="0 0 448.000000 448.000000"
 preserveAspectRatio="xMidYMid meet">
<metadata>
Created by potrace 1.16, written by Peter Selinger 2001-2019
</metadata>
<g transform="translate(0.000000,448.000000) scale(0.100000,-0.100000)"
fill="#78AB01" stroke="none">
<path d="M582 4338 c-212 -23 -388 -143 -483 -328 l-44 -85 -3 -1645 c-2
-1239 0 -1659 9 -1703 25 -122 141 -272 269 -347 138 -81 -29 -75 1915 -75
l1730 0 70 22 c92 29 155 70 240 157 75 76 114 144 143 248 16 59 17 174 17
1673 0 1547 -1 1612 -19 1665 -51 152 -171 293 -301 355 -150 72 -17 67 -1840
69 -902 0 -1668 -2 -1703 -6z m990 -525 c19 -22 187 -274 191 -288 2 -6 30 -2
73 12 131 42 209 55 360 60 186 7 319 -12 506 -74 13 -4 27 10 54 53 98 156
166 254 175 254 22 0 49 -22 49 -39 0 -10 -43 -82 -95 -159 -52 -78 -95 -144
-95 -147 0 -2 15 -11 33 -18 92 -39 254 -165 329 -257 122 -148 175 -272 193
-452 l7 -68 -1106 0 -1106 0 0 53 c0 87 36 212 93 321 80 154 236 305 405 390
28 14 52 30 52 34 0 4 -41 68 -90 142 -89 133 -102 164 -78 188 17 17 32 15
50 -5z m-736 -1293 c35 -14 83 -60 112 -109 l27 -46 0 -582 0 -581 -30 -44
c-40 -56 -113 -105 -172 -114 -100 -15 -210 49 -252 146 -21 50 -22 56 -19
613 3 619 0 589 67 660 62 67 174 91 267 57z m2990 4 c63 -26 110 -70 133
-124 21 -50 22 -55 19 -629 l-3 -579 -30 -43 c-45 -63 -124 -104 -200 -104
-77 1 -154 40 -199 103 l-31 44 -3 571 c-2 315 0 587 3 606 6 34 79 122 120
144 51 28 139 33 191 11z m-478 -901 c-3 -1019 4 -932 -81 -1010 -65 -60 -98
-68 -277 -68 l-155 0 -6 38 c-3 21 -11 43 -18 50 -12 12 -228 35 -343 36 -66
1 -68 2 -68 26 0 28 32 65 56 65 8 0 46 13 84 29 180 77 354 240 427 401 85
189 86 463 2 646 -73 159 -207 304 -349 378 -113 60 -205 80 -360 80 -158 -1
-223 -15 -350 -77 -71 -35 -102 -58 -185 -142 -137 -137 -199 -249 -231 -411
-42 -224 16 -466 152 -629 88 -105 254 -220 382 -265 75 -27 77 -28 80 -63 4
-45 8 -44 -206 -51 -90 -4 -172 -11 -182 -16 -10 -5 -25 -29 -33 -52 l-14 -43
-169 1 c-109 0 -183 5 -208 13 -52 18 -115 76 -140 131 -21 44 -21 56 -24 943
l-3 897 1111 0 1111 0 -3 -907z m-925 232 c88 -43 137 -92 176 -174 23 -49 26
-69 26 -161 0 -63 -5 -120 -14 -143 -29 -83 -120 -153 -174 -135 -36 13 -40 8
-27 -28 9 -23 8 -31 -6 -41 -21 -15 -103 -33 -154 -33 -41 0 -200 46 -200 58
0 4 32 36 70 70 68 61 72 63 102 53 110 -39 238 72 238 205 0 105 -85 184
-199 184 l-62 0 41 -38 c34 -33 40 -45 40 -80 0 -33 -6 -45 -31 -66 -47 -40
-92 -36 -142 14 -22 22 -41 39 -42 38 -1 -2 -7 -28 -13 -59 -6 -31 -29 -96
-52 -144 -47 -102 -51 -102 -91 5 -18 49 -24 85 -24 146 0 76 3 87 44 167 45
89 70 116 151 157 77 39 121 50 196 47 58 -3 85 -11 147 -42z"/>
<path d="M1715 3228 c-51 -30 -71 -79 -55 -138 12 -46 42 -70 97 -77 80 -10
150 78 119 151 -27 65 -105 96 -161 64z"/>
<path d="M2661 3227 c-38 -19 -64 -71 -57 -112 28 -146 226 -130 226 19 0 54
-52 106 -106 106 -22 0 -50 -6 -63 -13z"/>
</g>
</svg>
