<svg id="Layer_1" data-name="Layer 1" xmlns="http://www.w3.org/2000/svg" xmlns:xlink="http://www.w3.org/1999/xlink" viewBox="0 0 187.92 164.43"><defs><style>.cls-1{fill:url(#linear-gradient);}.cls-2{fill:#fff;}.cls-3{fill:#1e2021;}.cls-4{fill:#ccc;}.cls-5{fill:#333;}</style><linearGradient id="linear-gradient" x1="168.37" y1="155.15" x2="16.55" y2="39.44" gradientUnits="userSpaceOnUse"><stop offset="0" stop-color="#2cd2d5"/><stop offset="1" stop-color="#0c34fb"/></linearGradient></defs><rect class="cls-1" y="23.49" width="176.17" height="140.94" rx="8"/><path class="cls-2" d="M181.48,206.4a2.1,2.1,0,0,0-2.82,0c-5.82,5-12.85,6-18.39,4.23-2.7-.89-4.82-2.67-7-5-1.72-2-11.35-14.14-15.17-17.73a26,26,0,0,0-14-6.8,23.62,23.62,0,0,0-14.85,2.72,21,21,0,0,0-9.32,10.6,2.1,2.1,0,0,0,.79,2.46,2.2,2.2,0,0,0,2.63-.17c5.83-5,12.85-6,18.4-4.23,2.69.89,4.81,2.67,7,5,1.72,2,11.36,14.14,15.17,17.73a26,26,0,0,0,14,6.8,23.59,23.59,0,0,0,14.85-2.72,21,21,0,0,0,9.32-10.6A2,2,0,0,0,181.48,206.4Z" transform="translate(-93.54 -106.89)"/><path class="cls-3" d="M179.85,205.86a2.06,2.06,0,0,0,2.66,2.66l4.43-2.06-5-5.05Z" transform="translate(-93.54 -106.89)"/><path class="cls-4" d="M188.76,184.43l-7.31,14.93a1.61,1.61,0,0,0,.45,2l5,5.05a1.64,1.64,0,0,0,2.05.45l14.93-7.32a3.14,3.14,0,0,0,.81-.57l-15.39-15.39A3.48,3.48,0,0,0,188.76,184.43Z" transform="translate(-93.54 -106.89)"/><path class="cls-5" d="M281.07,120.53a53.26,53.26,0,0,0-13.25-13.24,1.66,1.66,0,0,0-2.12,0l-76.37,76.37L204.73,199l76.36-76.36A1.67,1.67,0,0,0,281.07,120.53Z" transform="translate(-93.54 -106.89)"/></svg>